# xmcd CD database file
#
# Track frame offsets:
#	150
#	16207
#	40400
#	54015
#	75835
#	103605
#	117067
#	137182
#	157740
#	200682
#
# Disc length: 3180 seconds
#
# Revision: 0
# Processed by: cddbd v1.5.1PL0 Copyright (c) Steve Scherf et al.
# Submitted via: CDex 1.51
#
DISCID=6e0c6a0a
DTITLE=Larry Garner - Too Blues
DYEAR=1994
DGENRE=Blues
TTITLE0=Shak Bully
TTITLE1=Dog House Blues
TTITLE2=Don't Dish It Out
TTITLE3=Thought I Had The Blues
TTITLE4=Mr and Mrs Pain
TTITLE5=Kleptomanic
TTITLE6=Born To Sang The Blues
TTITLE7=She Should've Been Back
TTITLE8=Love Her With A Feeling
TTITLE9=Somebody (Riding Song)
EXTD=YEAR: 1994
EXTT0=
EXTT1=
EXTT2=
EXTT3=
EXTT4=
EXTT5=
EXTT6=
EXTT7=
EXTT8=
EXTT9=
PLAYORDER=
